<?xml version="1.0" encoding="UTF-8"?>
<svg xmlns="http://www.w3.org/2000/svg" version="1.1" width="300" height="300" viewBox="0 0 300 300"><rect x="0" y="0" width="300" height="300" fill="#ffffff"/><g transform="scale(10.345)"><g transform="translate(0,0)"><defs><linearGradient gradientUnits="userSpaceOnUse" x1="0" y1="0" x2="0" y2="29" id="g1"><stop offset="0%" stop-color="#0093e9"/><stop offset="100%" stop-color="#80d0c7"/></linearGradient></defs><path fill-rule="evenodd" d="M9.9 0.5A0.4 0.4 0 0 1 9.5 0.9A0.4 0.4 0 0 1 9.1 0.5A0.4 0.4 0 0 1 9.5 0.1A0.4 0.4 0 0 1 9.9 0.5ZM12.9 0.5A0.4 0.4 0 0 1 12.5 0.9A0.4 0.4 0 0 1 12.1 0.5A0.4 0.4 0 0 1 12.5 0.1A0.4 0.4 0 0 1 12.9 0.5ZM13.9 0.5A0.4 0.4 0 0 1 13.5 0.9A0.4 0.4 0 0 1 13.1 0.5A0.4 0.4 0 0 1 13.5 0.1A0.4 0.4 0 0 1 13.9 0.5ZM14.9 0.5A0.4 0.4 0 0 1 14.5 0.9A0.4 0.4 0 0 1 14.1 0.5A0.4 0.4 0 0 1 14.5 0.1A0.4 0.4 0 0 1 14.9 0.5ZM16.9 0.5A0.4 0.4 0 0 1 16.5 0.9A0.4 0.4 0 0 1 16.1 0.5A0.4 0.4 0 0 1 16.5 0.1A0.4 0.4 0 0 1 16.9 0.5ZM18.9 0.5A0.4 0.4 0 0 1 18.5 0.9A0.4 0.4 0 0 1 18.1 0.5A0.4 0.4 0 0 1 18.5 0.1A0.4 0.4 0 0 1 18.9 0.5ZM19.9 0.5A0.4 0.4 0 0 1 19.5 0.9A0.4 0.4 0 0 1 19.1 0.5A0.4 0.4 0 0 1 19.5 0.1A0.4 0.4 0 0 1 19.9 0.5ZM10.9 1.5A0.4 0.4 0 0 1 10.5 1.9A0.4 0.4 0 0 1 10.1 1.5A0.4 0.4 0 0 1 10.5 1.1A0.4 0.4 0 0 1 10.9 1.5ZM11.9 1.5A0.4 0.4 0 0 1 11.5 1.9A0.4 0.4 0 0 1 11.1 1.5A0.4 0.4 0 0 1 11.5 1.1A0.4 0.4 0 0 1 11.9 1.5ZM12.9 1.5A0.4 0.4 0 0 1 12.5 1.9A0.4 0.4 0 0 1 12.1 1.5A0.4 0.4 0 0 1 12.5 1.1A0.4 0.4 0 0 1 12.9 1.5ZM14.9 1.5A0.4 0.4 0 0 1 14.5 1.9A0.4 0.4 0 0 1 14.1 1.5A0.4 0.4 0 0 1 14.5 1.1A0.4 0.4 0 0 1 14.9 1.5ZM15.9 1.5A0.4 0.4 0 0 1 15.5 1.9A0.4 0.4 0 0 1 15.1 1.5A0.4 0.4 0 0 1 15.5 1.1A0.4 0.4 0 0 1 15.9 1.5ZM17.9 1.5A0.4 0.4 0 0 1 17.5 1.9A0.4 0.4 0 0 1 17.1 1.5A0.4 0.4 0 0 1 17.5 1.1A0.4 0.4 0 0 1 17.9 1.5ZM18.9 1.5A0.4 0.4 0 0 1 18.5 1.9A0.4 0.4 0 0 1 18.1 1.5A0.4 0.4 0 0 1 18.5 1.1A0.4 0.4 0 0 1 18.9 1.5ZM19.9 1.5A0.4 0.4 0 0 1 19.5 1.9A0.4 0.4 0 0 1 19.1 1.5A0.4 0.4 0 0 1 19.5 1.1A0.4 0.4 0 0 1 19.9 1.5ZM20.9 1.5A0.4 0.4 0 0 1 20.5 1.9A0.4 0.4 0 0 1 20.1 1.5A0.4 0.4 0 0 1 20.5 1.1A0.4 0.4 0 0 1 20.9 1.5ZM8.9 2.5A0.4 0.4 0 0 1 8.5 2.9A0.4 0.4 0 0 1 8.1 2.5A0.4 0.4 0 0 1 8.5 2.1A0.4 0.4 0 0 1 8.9 2.5ZM9.9 2.5A0.4 0.4 0 0 1 9.5 2.9A0.4 0.4 0 0 1 9.1 2.5A0.4 0.4 0 0 1 9.5 2.1A0.4 0.4 0 0 1 9.9 2.5ZM10.9 2.5A0.4 0.4 0 0 1 10.5 2.9A0.4 0.4 0 0 1 10.1 2.5A0.4 0.4 0 0 1 10.5 2.1A0.4 0.4 0 0 1 10.9 2.5ZM12.9 2.5A0.4 0.4 0 0 1 12.5 2.9A0.4 0.4 0 0 1 12.1 2.5A0.4 0.4 0 0 1 12.5 2.1A0.4 0.4 0 0 1 12.9 2.5ZM13.9 2.5A0.4 0.4 0 0 1 13.5 2.9A0.4 0.4 0 0 1 13.1 2.5A0.4 0.4 0 0 1 13.5 2.1A0.4 0.4 0 0 1 13.9 2.5ZM14.9 2.5A0.4 0.4 0 0 1 14.5 2.9A0.4 0.4 0 0 1 14.1 2.5A0.4 0.4 0 0 1 14.5 2.1A0.4 0.4 0 0 1 14.9 2.5ZM15.9 2.5A0.4 0.4 0 0 1 15.5 2.9A0.4 0.4 0 0 1 15.1 2.5A0.4 0.4 0 0 1 15.5 2.1A0.4 0.4 0 0 1 15.9 2.5ZM16.9 2.5A0.4 0.4 0 0 1 16.5 2.9A0.4 0.4 0 0 1 16.1 2.5A0.4 0.4 0 0 1 16.5 2.1A0.4 0.4 0 0 1 16.9 2.5ZM18.9 2.5A0.4 0.4 0 0 1 18.5 2.9A0.4 0.4 0 0 1 18.1 2.5A0.4 0.4 0 0 1 18.5 2.1A0.4 0.4 0 0 1 18.9 2.5ZM9.9 3.5A0.4 0.4 0 0 1 9.5 3.9A0.4 0.4 0 0 1 9.1 3.5A0.4 0.4 0 0 1 9.5 3.1A0.4 0.4 0 0 1 9.9 3.5ZM10.9 3.5A0.4 0.4 0 0 1 10.5 3.9A0.4 0.4 0 0 1 10.1 3.5A0.4 0.4 0 0 1 10.5 3.1A0.4 0.4 0 0 1 10.9 3.5ZM11.9 3.5A0.4 0.4 0 0 1 11.5 3.9A0.4 0.4 0 0 1 11.1 3.5A0.4 0.4 0 0 1 11.5 3.1A0.4 0.4 0 0 1 11.9 3.5ZM13.9 3.5A0.4 0.4 0 0 1 13.5 3.9A0.4 0.4 0 0 1 13.1 3.5A0.4 0.4 0 0 1 13.5 3.1A0.4 0.4 0 0 1 13.9 3.5ZM14.9 3.5A0.4 0.4 0 0 1 14.5 3.9A0.4 0.4 0 0 1 14.1 3.5A0.4 0.4 0 0 1 14.5 3.1A0.4 0.4 0 0 1 14.9 3.5ZM15.9 3.5A0.4 0.4 0 0 1 15.5 3.9A0.4 0.4 0 0 1 15.1 3.5A0.4 0.4 0 0 1 15.5 3.1A0.4 0.4 0 0 1 15.9 3.5ZM16.9 3.5A0.4 0.4 0 0 1 16.5 3.9A0.4 0.4 0 0 1 16.1 3.5A0.4 0.4 0 0 1 16.5 3.1A0.4 0.4 0 0 1 16.9 3.5ZM19.9 3.5A0.4 0.4 0 0 1 19.5 3.9A0.4 0.4 0 0 1 19.1 3.5A0.4 0.4 0 0 1 19.5 3.1A0.4 0.4 0 0 1 19.9 3.5ZM20.9 3.5A0.4 0.4 0 0 1 20.5 3.9A0.4 0.4 0 0 1 20.1 3.5A0.4 0.4 0 0 1 20.5 3.1A0.4 0.4 0 0 1 20.9 3.5ZM10.9 4.5A0.4 0.4 0 0 1 10.5 4.9A0.4 0.4 0 0 1 10.1 4.5A0.4 0.4 0 0 1 10.5 4.1A0.4 0.4 0 0 1 10.9 4.5ZM14.9 4.5A0.4 0.4 0 0 1 14.5 4.9A0.4 0.4 0 0 1 14.1 4.5A0.4 0.4 0 0 1 14.5 4.1A0.4 0.4 0 0 1 14.9 4.5ZM15.9 4.5A0.4 0.4 0 0 1 15.5 4.9A0.4 0.4 0 0 1 15.1 4.5A0.4 0.4 0 0 1 15.5 4.1A0.4 0.4 0 0 1 15.9 4.5ZM18.9 4.5A0.4 0.4 0 0 1 18.5 4.9A0.4 0.4 0 0 1 18.1 4.5A0.4 0.4 0 0 1 18.5 4.1A0.4 0.4 0 0 1 18.9 4.5ZM19.9 4.5A0.4 0.4 0 0 1 19.5 4.9A0.4 0.4 0 0 1 19.1 4.5A0.4 0.4 0 0 1 19.5 4.1A0.4 0.4 0 0 1 19.9 4.5ZM9.9 5.5A0.4 0.4 0 0 1 9.5 5.9A0.4 0.4 0 0 1 9.1 5.5A0.4 0.4 0 0 1 9.5 5.1A0.4 0.4 0 0 1 9.9 5.5ZM13.9 5.5A0.4 0.4 0 0 1 13.5 5.9A0.4 0.4 0 0 1 13.1 5.5A0.4 0.4 0 0 1 13.5 5.1A0.4 0.4 0 0 1 13.9 5.5ZM15.9 5.5A0.4 0.4 0 0 1 15.5 5.9A0.4 0.4 0 0 1 15.1 5.5A0.4 0.4 0 0 1 15.5 5.1A0.4 0.4 0 0 1 15.9 5.5ZM16.9 5.5A0.4 0.4 0 0 1 16.5 5.9A0.4 0.4 0 0 1 16.1 5.5A0.4 0.4 0 0 1 16.5 5.1A0.4 0.4 0 0 1 16.9 5.5ZM17.9 5.5A0.4 0.4 0 0 1 17.5 5.9A0.4 0.4 0 0 1 17.1 5.5A0.4 0.4 0 0 1 17.5 5.1A0.4 0.4 0 0 1 17.9 5.5ZM19.9 5.5A0.4 0.4 0 0 1 19.5 5.9A0.4 0.4 0 0 1 19.1 5.5A0.4 0.4 0 0 1 19.5 5.1A0.4 0.4 0 0 1 19.9 5.5ZM20.9 5.5A0.4 0.4 0 0 1 20.5 5.9A0.4 0.4 0 0 1 20.1 5.5A0.4 0.4 0 0 1 20.5 5.1A0.4 0.4 0 0 1 20.9 5.5ZM8.9 6.5A0.4 0.4 0 0 1 8.5 6.9A0.4 0.4 0 0 1 8.1 6.5A0.4 0.4 0 0 1 8.5 6.1A0.4 0.4 0 0 1 8.9 6.5ZM10.9 6.5A0.4 0.4 0 0 1 10.5 6.9A0.4 0.4 0 0 1 10.1 6.5A0.4 0.4 0 0 1 10.5 6.1A0.4 0.4 0 0 1 10.9 6.5ZM12.9 6.5A0.4 0.4 0 0 1 12.5 6.9A0.4 0.4 0 0 1 12.1 6.5A0.4 0.4 0 0 1 12.5 6.1A0.4 0.4 0 0 1 12.9 6.5ZM14.9 6.5A0.4 0.4 0 0 1 14.5 6.9A0.4 0.4 0 0 1 14.1 6.5A0.4 0.4 0 0 1 14.5 6.1A0.4 0.4 0 0 1 14.9 6.5ZM16.9 6.5A0.4 0.4 0 0 1 16.5 6.9A0.4 0.4 0 0 1 16.1 6.5A0.4 0.4 0 0 1 16.5 6.1A0.4 0.4 0 0 1 16.9 6.5ZM18.9 6.5A0.4 0.4 0 0 1 18.5 6.9A0.4 0.4 0 0 1 18.1 6.5A0.4 0.4 0 0 1 18.5 6.1A0.4 0.4 0 0 1 18.9 6.5ZM20.9 6.5A0.4 0.4 0 0 1 20.5 6.9A0.4 0.4 0 0 1 20.1 6.5A0.4 0.4 0 0 1 20.5 6.1A0.4 0.4 0 0 1 20.9 6.5ZM8.9 7.5A0.4 0.4 0 0 1 8.5 7.9A0.4 0.4 0 0 1 8.1 7.5A0.4 0.4 0 0 1 8.5 7.1A0.4 0.4 0 0 1 8.9 7.5ZM9.9 7.5A0.4 0.4 0 0 1 9.5 7.9A0.4 0.4 0 0 1 9.1 7.5A0.4 0.4 0 0 1 9.5 7.1A0.4 0.4 0 0 1 9.9 7.5ZM10.9 7.5A0.4 0.4 0 0 1 10.5 7.9A0.4 0.4 0 0 1 10.1 7.5A0.4 0.4 0 0 1 10.5 7.1A0.4 0.4 0 0 1 10.9 7.5ZM12.9 7.5A0.4 0.4 0 0 1 12.5 7.9A0.4 0.4 0 0 1 12.1 7.5A0.4 0.4 0 0 1 12.5 7.1A0.4 0.4 0 0 1 12.9 7.5ZM13.9 7.5A0.4 0.4 0 0 1 13.5 7.9A0.4 0.4 0 0 1 13.1 7.5A0.4 0.4 0 0 1 13.5 7.1A0.4 0.4 0 0 1 13.9 7.5ZM14.9 7.5A0.4 0.4 0 0 1 14.5 7.9A0.4 0.4 0 0 1 14.1 7.5A0.4 0.4 0 0 1 14.5 7.1A0.4 0.4 0 0 1 14.9 7.5ZM15.9 7.5A0.4 0.4 0 0 1 15.5 7.9A0.4 0.4 0 0 1 15.1 7.5A0.4 0.4 0 0 1 15.5 7.1A0.4 0.4 0 0 1 15.9 7.5ZM16.9 7.5A0.4 0.4 0 0 1 16.5 7.9A0.4 0.4 0 0 1 16.1 7.5A0.4 0.4 0 0 1 16.5 7.1A0.4 0.4 0 0 1 16.9 7.5ZM17.9 7.5A0.4 0.4 0 0 1 17.5 7.9A0.4 0.4 0 0 1 17.1 7.5A0.4 0.4 0 0 1 17.5 7.1A0.4 0.4 0 0 1 17.9 7.5ZM19.9 7.5A0.4 0.4 0 0 1 19.5 7.9A0.4 0.4 0 0 1 19.1 7.5A0.4 0.4 0 0 1 19.5 7.1A0.4 0.4 0 0 1 19.9 7.5ZM20.9 7.5A0.4 0.4 0 0 1 20.5 7.9A0.4 0.4 0 0 1 20.1 7.5A0.4 0.4 0 0 1 20.5 7.1A0.4 0.4 0 0 1 20.9 7.5ZM0.9 8.5A0.4 0.4 0 0 1 0.5 8.9A0.4 0.4 0 0 1 0.1 8.5A0.4 0.4 0 0 1 0.5 8.1A0.4 0.4 0 0 1 0.9 8.5ZM1.9 8.5A0.4 0.4 0 0 1 1.5 8.9A0.4 0.4 0 0 1 1.1 8.5A0.4 0.4 0 0 1 1.5 8.1A0.4 0.4 0 0 1 1.9 8.5ZM2.9 8.5A0.4 0.4 0 0 1 2.5 8.9A0.4 0.4 0 0 1 2.1 8.5A0.4 0.4 0 0 1 2.5 8.1A0.4 0.4 0 0 1 2.9 8.5ZM4.9 8.5A0.4 0.4 0 0 1 4.5 8.9A0.4 0.4 0 0 1 4.1 8.5A0.4 0.4 0 0 1 4.5 8.1A0.4 0.4 0 0 1 4.9 8.5ZM5.9 8.5A0.4 0.4 0 0 1 5.5 8.9A0.4 0.4 0 0 1 5.1 8.5A0.4 0.4 0 0 1 5.5 8.1A0.4 0.4 0 0 1 5.9 8.5ZM6.9 8.5A0.4 0.4 0 0 1 6.5 8.9A0.4 0.4 0 0 1 6.1 8.5A0.4 0.4 0 0 1 6.5 8.1A0.4 0.4 0 0 1 6.9 8.5ZM7.9 8.5A0.4 0.4 0 0 1 7.5 8.9A0.4 0.4 0 0 1 7.1 8.5A0.4 0.4 0 0 1 7.5 8.1A0.4 0.4 0 0 1 7.9 8.5ZM8.9 8.5A0.4 0.4 0 0 1 8.5 8.9A0.4 0.4 0 0 1 8.1 8.5A0.4 0.4 0 0 1 8.5 8.1A0.4 0.4 0 0 1 8.9 8.5ZM10.9 8.5A0.4 0.4 0 0 1 10.5 8.9A0.4 0.4 0 0 1 10.1 8.5A0.4 0.4 0 0 1 10.5 8.1A0.4 0.4 0 0 1 10.9 8.5ZM11.9 8.5A0.4 0.4 0 0 1 11.5 8.9A0.4 0.4 0 0 1 11.1 8.5A0.4 0.4 0 0 1 11.5 8.1A0.4 0.4 0 0 1 11.9 8.5ZM14.9 8.5A0.4 0.4 0 0 1 14.5 8.9A0.4 0.4 0 0 1 14.1 8.5A0.4 0.4 0 0 1 14.5 8.1A0.4 0.4 0 0 1 14.9 8.5ZM16.9 8.5A0.4 0.4 0 0 1 16.5 8.9A0.4 0.4 0 0 1 16.1 8.5A0.4 0.4 0 0 1 16.5 8.1A0.4 0.4 0 0 1 16.9 8.5ZM19.9 8.5A0.4 0.4 0 0 1 19.5 8.9A0.4 0.4 0 0 1 19.1 8.5A0.4 0.4 0 0 1 19.5 8.1A0.4 0.4 0 0 1 19.9 8.5ZM20.9 8.5A0.4 0.4 0 0 1 20.5 8.9A0.4 0.4 0 0 1 20.1 8.5A0.4 0.4 0 0 1 20.5 8.1A0.4 0.4 0 0 1 20.9 8.5ZM21.9 8.5A0.4 0.4 0 0 1 21.5 8.9A0.4 0.4 0 0 1 21.1 8.5A0.4 0.4 0 0 1 21.5 8.1A0.4 0.4 0 0 1 21.9 8.5ZM22.9 8.5A0.4 0.4 0 0 1 22.5 8.9A0.4 0.4 0 0 1 22.1 8.5A0.4 0.4 0 0 1 22.5 8.1A0.4 0.4 0 0 1 22.9 8.5ZM26.9 8.5A0.4 0.4 0 0 1 26.5 8.9A0.4 0.4 0 0 1 26.1 8.5A0.4 0.4 0 0 1 26.5 8.1A0.4 0.4 0 0 1 26.9 8.5ZM2.9 9.5A0.4 0.4 0 0 1 2.5 9.9A0.4 0.4 0 0 1 2.1 9.5A0.4 0.4 0 0 1 2.5 9.1A0.4 0.4 0 0 1 2.9 9.5ZM7.9 9.5A0.4 0.4 0 0 1 7.5 9.9A0.4 0.4 0 0 1 7.1 9.5A0.4 0.4 0 0 1 7.5 9.1A0.4 0.4 0 0 1 7.9 9.5ZM10.9 9.5A0.4 0.4 0 0 1 10.5 9.9A0.4 0.4 0 0 1 10.1 9.5A0.4 0.4 0 0 1 10.5 9.1A0.4 0.4 0 0 1 10.9 9.5ZM11.9 9.5A0.4 0.4 0 0 1 11.5 9.9A0.4 0.4 0 0 1 11.1 9.5A0.4 0.4 0 0 1 11.5 9.1A0.4 0.4 0 0 1 11.9 9.5ZM14.9 9.5A0.4 0.4 0 0 1 14.5 9.9A0.4 0.4 0 0 1 14.1 9.5A0.4 0.4 0 0 1 14.5 9.1A0.4 0.4 0 0 1 14.9 9.5ZM16.9 9.5A0.4 0.4 0 0 1 16.5 9.9A0.4 0.4 0 0 1 16.1 9.5A0.4 0.4 0 0 1 16.5 9.1A0.4 0.4 0 0 1 16.9 9.5ZM17.9 9.5A0.4 0.4 0 0 1 17.5 9.9A0.4 0.4 0 0 1 17.1 9.5A0.4 0.4 0 0 1 17.5 9.1A0.4 0.4 0 0 1 17.9 9.5ZM18.9 9.5A0.4 0.4 0 0 1 18.5 9.9A0.4 0.4 0 0 1 18.1 9.5A0.4 0.4 0 0 1 18.5 9.1A0.4 0.4 0 0 1 18.9 9.5ZM20.9 9.5A0.4 0.4 0 0 1 20.5 9.9A0.4 0.4 0 0 1 20.1 9.5A0.4 0.4 0 0 1 20.5 9.1A0.4 0.4 0 0 1 20.9 9.5ZM21.9 9.5A0.4 0.4 0 0 1 21.5 9.9A0.4 0.4 0 0 1 21.1 9.5A0.4 0.4 0 0 1 21.5 9.1A0.4 0.4 0 0 1 21.9 9.5ZM22.9 9.5A0.4 0.4 0 0 1 22.5 9.9A0.4 0.4 0 0 1 22.1 9.5A0.4 0.4 0 0 1 22.5 9.1A0.4 0.4 0 0 1 22.9 9.5ZM27.9 9.5A0.4 0.4 0 0 1 27.5 9.9A0.4 0.4 0 0 1 27.1 9.5A0.4 0.4 0 0 1 27.5 9.1A0.4 0.4 0 0 1 27.9 9.5ZM28.9 9.5A0.4 0.4 0 0 1 28.5 9.9A0.4 0.4 0 0 1 28.1 9.5A0.4 0.4 0 0 1 28.5 9.1A0.4 0.4 0 0 1 28.9 9.5ZM2.9 10.5A0.4 0.4 0 0 1 2.5 10.9A0.4 0.4 0 0 1 2.1 10.5A0.4 0.4 0 0 1 2.5 10.1A0.4 0.4 0 0 1 2.9 10.5ZM4.9 10.5A0.4 0.4 0 0 1 4.5 10.9A0.4 0.4 0 0 1 4.1 10.5A0.4 0.4 0 0 1 4.5 10.1A0.4 0.4 0 0 1 4.9 10.5ZM5.9 10.5A0.4 0.4 0 0 1 5.5 10.9A0.4 0.4 0 0 1 5.1 10.5A0.4 0.4 0 0 1 5.5 10.1A0.4 0.4 0 0 1 5.9 10.5ZM6.9 10.5A0.4 0.4 0 0 1 6.5 10.9A0.4 0.4 0 0 1 6.1 10.5A0.4 0.4 0 0 1 6.5 10.1A0.4 0.4 0 0 1 6.9 10.5ZM7.9 10.5A0.4 0.4 0 0 1 7.5 10.9A0.4 0.4 0 0 1 7.1 10.5A0.4 0.4 0 0 1 7.5 10.1A0.4 0.4 0 0 1 7.9 10.5ZM8.9 10.5A0.4 0.4 0 0 1 8.5 10.9A0.4 0.4 0 0 1 8.1 10.5A0.4 0.4 0 0 1 8.5 10.1A0.4 0.4 0 0 1 8.9 10.5ZM9.9 10.5A0.4 0.4 0 0 1 9.5 10.9A0.4 0.4 0 0 1 9.1 10.5A0.4 0.4 0 0 1 9.5 10.1A0.4 0.4 0 0 1 9.9 10.5ZM13.9 10.5A0.4 0.4 0 0 1 13.5 10.9A0.4 0.4 0 0 1 13.1 10.5A0.4 0.4 0 0 1 13.5 10.1A0.4 0.4 0 0 1 13.9 10.5ZM17.9 10.5A0.4 0.4 0 0 1 17.5 10.9A0.4 0.4 0 0 1 17.1 10.5A0.4 0.4 0 0 1 17.5 10.1A0.4 0.4 0 0 1 17.9 10.5ZM18.9 10.5A0.4 0.4 0 0 1 18.5 10.9A0.4 0.4 0 0 1 18.1 10.5A0.4 0.4 0 0 1 18.5 10.1A0.4 0.4 0 0 1 18.9 10.5ZM20.9 10.5A0.4 0.4 0 0 1 20.5 10.9A0.4 0.4 0 0 1 20.1 10.5A0.4 0.4 0 0 1 20.5 10.1A0.4 0.4 0 0 1 20.9 10.5ZM23.9 10.5A0.4 0.4 0 0 1 23.5 10.9A0.4 0.4 0 0 1 23.1 10.5A0.4 0.4 0 0 1 23.5 10.1A0.4 0.4 0 0 1 23.9 10.5ZM25.9 10.5A0.4 0.4 0 0 1 25.5 10.9A0.4 0.4 0 0 1 25.1 10.5A0.4 0.4 0 0 1 25.5 10.1A0.4 0.4 0 0 1 25.9 10.5ZM26.9 10.5A0.4 0.4 0 0 1 26.5 10.9A0.4 0.4 0 0 1 26.1 10.5A0.4 0.4 0 0 1 26.5 10.1A0.4 0.4 0 0 1 26.9 10.5ZM27.9 10.5A0.4 0.4 0 0 1 27.5 10.9A0.4 0.4 0 0 1 27.1 10.5A0.4 0.4 0 0 1 27.5 10.1A0.4 0.4 0 0 1 27.9 10.5ZM28.9 10.5A0.4 0.4 0 0 1 28.5 10.9A0.4 0.4 0 0 1 28.1 10.5A0.4 0.4 0 0 1 28.5 10.1A0.4 0.4 0 0 1 28.9 10.5ZM1.9 11.5A0.4 0.4 0 0 1 1.5 11.9A0.4 0.4 0 0 1 1.1 11.5A0.4 0.4 0 0 1 1.5 11.1A0.4 0.4 0 0 1 1.9 11.5ZM4.9 11.5A0.4 0.4 0 0 1 4.5 11.9A0.4 0.4 0 0 1 4.1 11.5A0.4 0.4 0 0 1 4.5 11.1A0.4 0.4 0 0 1 4.9 11.5ZM5.9 11.5A0.4 0.4 0 0 1 5.5 11.9A0.4 0.4 0 0 1 5.1 11.5A0.4 0.4 0 0 1 5.5 11.1A0.4 0.4 0 0 1 5.9 11.5ZM8.9 11.5A0.4 0.4 0 0 1 8.5 11.9A0.4 0.4 0 0 1 8.1 11.5A0.4 0.4 0 0 1 8.5 11.1A0.4 0.4 0 0 1 8.9 11.5ZM11.9 11.5A0.4 0.4 0 0 1 11.5 11.9A0.4 0.4 0 0 1 11.1 11.5A0.4 0.4 0 0 1 11.5 11.1A0.4 0.4 0 0 1 11.9 11.5ZM15.9 11.5A0.4 0.4 0 0 1 15.5 11.9A0.4 0.4 0 0 1 15.1 11.5A0.4 0.4 0 0 1 15.5 11.1A0.4 0.4 0 0 1 15.9 11.5ZM16.9 11.5A0.4 0.4 0 0 1 16.5 11.9A0.4 0.4 0 0 1 16.1 11.5A0.4 0.4 0 0 1 16.5 11.1A0.4 0.4 0 0 1 16.9 11.5ZM17.9 11.5A0.4 0.4 0 0 1 17.5 11.9A0.4 0.4 0 0 1 17.1 11.5A0.4 0.4 0 0 1 17.5 11.1A0.4 0.4 0 0 1 17.9 11.5ZM18.9 11.5A0.4 0.4 0 0 1 18.5 11.9A0.4 0.4 0 0 1 18.1 11.5A0.4 0.4 0 0 1 18.5 11.1A0.4 0.4 0 0 1 18.9 11.5ZM19.9 11.5A0.4 0.4 0 0 1 19.5 11.9A0.4 0.4 0 0 1 19.1 11.5A0.4 0.4 0 0 1 19.5 11.1A0.4 0.4 0 0 1 19.9 11.5ZM23.9 11.5A0.4 0.4 0 0 1 23.5 11.9A0.4 0.4 0 0 1 23.1 11.5A0.4 0.4 0 0 1 23.5 11.1A0.4 0.4 0 0 1 23.9 11.5ZM0.9 12.5A0.4 0.4 0 0 1 0.5 12.9A0.4 0.4 0 0 1 0.1 12.5A0.4 0.4 0 0 1 0.5 12.1A0.4 0.4 0 0 1 0.9 12.5ZM1.9 12.5A0.4 0.4 0 0 1 1.5 12.9A0.4 0.4 0 0 1 1.1 12.5A0.4 0.4 0 0 1 1.5 12.1A0.4 0.4 0 0 1 1.9 12.5ZM3.9 12.5A0.4 0.4 0 0 1 3.5 12.9A0.4 0.4 0 0 1 3.1 12.5A0.4 0.4 0 0 1 3.5 12.1A0.4 0.4 0 0 1 3.9 12.5ZM5.9 12.5A0.4 0.4 0 0 1 5.5 12.9A0.4 0.4 0 0 1 5.1 12.5A0.4 0.4 0 0 1 5.5 12.1A0.4 0.4 0 0 1 5.9 12.5ZM6.9 12.5A0.4 0.4 0 0 1 6.5 12.9A0.4 0.4 0 0 1 6.1 12.5A0.4 0.4 0 0 1 6.5 12.1A0.4 0.4 0 0 1 6.9 12.5ZM8.9 12.5A0.4 0.4 0 0 1 8.5 12.9A0.4 0.4 0 0 1 8.1 12.5A0.4 0.4 0 0 1 8.5 12.1A0.4 0.4 0 0 1 8.9 12.5ZM12.9 12.5A0.4 0.4 0 0 1 12.5 12.9A0.4 0.4 0 0 1 12.1 12.5A0.4 0.4 0 0 1 12.5 12.1A0.4 0.4 0 0 1 12.9 12.5ZM16.9 12.5A0.4 0.4 0 0 1 16.5 12.9A0.4 0.4 0 0 1 16.1 12.5A0.4 0.4 0 0 1 16.5 12.1A0.4 0.4 0 0 1 16.9 12.5ZM17.9 12.5A0.4 0.4 0 0 1 17.5 12.9A0.4 0.4 0 0 1 17.1 12.5A0.4 0.4 0 0 1 17.5 12.1A0.4 0.4 0 0 1 17.9 12.5ZM19.9 12.5A0.4 0.4 0 0 1 19.5 12.9A0.4 0.4 0 0 1 19.1 12.5A0.4 0.4 0 0 1 19.5 12.1A0.4 0.4 0 0 1 19.9 12.5ZM20.9 12.5A0.4 0.4 0 0 1 20.5 12.9A0.4 0.4 0 0 1 20.1 12.5A0.4 0.4 0 0 1 20.5 12.1A0.4 0.4 0 0 1 20.9 12.5ZM21.9 12.5A0.4 0.4 0 0 1 21.5 12.9A0.4 0.4 0 0 1 21.1 12.5A0.4 0.4 0 0 1 21.5 12.1A0.4 0.4 0 0 1 21.9 12.5ZM22.9 12.5A0.4 0.4 0 0 1 22.5 12.9A0.4 0.4 0 0 1 22.1 12.5A0.4 0.4 0 0 1 22.5 12.1A0.4 0.4 0 0 1 22.9 12.5ZM23.9 12.5A0.4 0.4 0 0 1 23.5 12.9A0.4 0.4 0 0 1 23.1 12.5A0.4 0.4 0 0 1 23.5 12.1A0.4 0.4 0 0 1 23.9 12.5ZM24.9 12.5A0.4 0.4 0 0 1 24.5 12.9A0.4 0.4 0 0 1 24.1 12.5A0.4 0.4 0 0 1 24.5 12.1A0.4 0.4 0 0 1 24.9 12.5ZM27.9 12.5A0.4 0.4 0 0 1 27.5 12.9A0.4 0.4 0 0 1 27.1 12.5A0.4 0.4 0 0 1 27.5 12.1A0.4 0.4 0 0 1 27.9 12.5ZM28.9 12.5A0.4 0.4 0 0 1 28.5 12.9A0.4 0.4 0 0 1 28.1 12.5A0.4 0.4 0 0 1 28.5 12.1A0.4 0.4 0 0 1 28.9 12.5ZM0.9 13.5A0.4 0.4 0 0 1 0.5 13.9A0.4 0.4 0 0 1 0.1 13.5A0.4 0.4 0 0 1 0.5 13.1A0.4 0.4 0 0 1 0.9 13.5ZM5.9 13.5A0.4 0.4 0 0 1 5.5 13.9A0.4 0.4 0 0 1 5.1 13.5A0.4 0.4 0 0 1 5.5 13.1A0.4 0.4 0 0 1 5.9 13.5ZM8.9 13.5A0.4 0.4 0 0 1 8.5 13.9A0.4 0.4 0 0 1 8.1 13.5A0.4 0.4 0 0 1 8.5 13.1A0.4 0.4 0 0 1 8.9 13.5ZM9.9 13.5A0.4 0.4 0 0 1 9.5 13.9A0.4 0.4 0 0 1 9.1 13.5A0.4 0.4 0 0 1 9.5 13.1A0.4 0.4 0 0 1 9.9 13.5ZM11.9 13.5A0.4 0.4 0 0 1 11.5 13.9A0.4 0.4 0 0 1 11.1 13.5A0.4 0.4 0 0 1 11.5 13.1A0.4 0.4 0 0 1 11.9 13.5ZM12.9 13.5A0.4 0.4 0 0 1 12.5 13.9A0.4 0.4 0 0 1 12.1 13.5A0.4 0.4 0 0 1 12.5 13.1A0.4 0.4 0 0 1 12.9 13.5ZM13.9 13.5A0.4 0.4 0 0 1 13.5 13.9A0.4 0.4 0 0 1 13.1 13.5A0.4 0.4 0 0 1 13.5 13.1A0.4 0.4 0 0 1 13.9 13.5ZM16.9 13.5A0.4 0.4 0 0 1 16.5 13.9A0.4 0.4 0 0 1 16.1 13.5A0.4 0.4 0 0 1 16.5 13.1A0.4 0.4 0 0 1 16.9 13.5ZM17.9 13.5A0.4 0.4 0 0 1 17.5 13.9A0.4 0.4 0 0 1 17.1 13.5A0.4 0.4 0 0 1 17.5 13.1A0.4 0.4 0 0 1 17.9 13.5ZM20.9 13.5A0.4 0.4 0 0 1 20.5 13.9A0.4 0.4 0 0 1 20.1 13.5A0.4 0.4 0 0 1 20.5 13.1A0.4 0.4 0 0 1 20.9 13.5ZM21.9 13.5A0.4 0.4 0 0 1 21.5 13.9A0.4 0.4 0 0 1 21.1 13.5A0.4 0.4 0 0 1 21.5 13.1A0.4 0.4 0 0 1 21.9 13.5ZM22.9 13.5A0.4 0.4 0 0 1 22.5 13.9A0.4 0.4 0 0 1 22.1 13.5A0.4 0.4 0 0 1 22.5 13.1A0.4 0.4 0 0 1 22.9 13.5ZM26.9 13.5A0.4 0.4 0 0 1 26.5 13.9A0.4 0.4 0 0 1 26.1 13.5A0.4 0.4 0 0 1 26.5 13.1A0.4 0.4 0 0 1 26.9 13.5ZM27.9 13.5A0.4 0.4 0 0 1 27.5 13.9A0.4 0.4 0 0 1 27.1 13.5A0.4 0.4 0 0 1 27.5 13.1A0.4 0.4 0 0 1 27.9 13.5ZM28.9 13.5A0.4 0.4 0 0 1 28.5 13.9A0.4 0.4 0 0 1 28.1 13.5A0.4 0.4 0 0 1 28.5 13.1A0.4 0.4 0 0 1 28.9 13.5ZM2.9 14.5A0.4 0.4 0 0 1 2.5 14.9A0.4 0.4 0 0 1 2.1 14.5A0.4 0.4 0 0 1 2.5 14.1A0.4 0.4 0 0 1 2.9 14.5ZM3.9 14.5A0.4 0.4 0 0 1 3.5 14.9A0.4 0.4 0 0 1 3.1 14.5A0.4 0.4 0 0 1 3.5 14.1A0.4 0.4 0 0 1 3.9 14.5ZM4.9 14.5A0.4 0.4 0 0 1 4.5 14.9A0.4 0.4 0 0 1 4.1 14.5A0.4 0.4 0 0 1 4.5 14.1A0.4 0.4 0 0 1 4.9 14.5ZM5.9 14.5A0.4 0.4 0 0 1 5.5 14.9A0.4 0.4 0 0 1 5.1 14.5A0.4 0.4 0 0 1 5.5 14.1A0.4 0.4 0 0 1 5.9 14.5ZM6.9 14.5A0.4 0.4 0 0 1 6.5 14.9A0.4 0.4 0 0 1 6.1 14.5A0.4 0.4 0 0 1 6.5 14.1A0.4 0.4 0 0 1 6.9 14.5ZM9.9 14.5A0.4 0.4 0 0 1 9.5 14.9A0.4 0.4 0 0 1 9.1 14.5A0.4 0.4 0 0 1 9.5 14.1A0.4 0.4 0 0 1 9.9 14.5ZM10.9 14.5A0.4 0.4 0 0 1 10.5 14.9A0.4 0.4 0 0 1 10.1 14.5A0.4 0.4 0 0 1 10.5 14.1A0.4 0.4 0 0 1 10.9 14.5ZM11.9 14.5A0.4 0.4 0 0 1 11.5 14.9A0.4 0.4 0 0 1 11.1 14.5A0.4 0.4 0 0 1 11.5 14.1A0.4 0.4 0 0 1 11.9 14.5ZM12.9 14.5A0.4 0.4 0 0 1 12.5 14.9A0.4 0.4 0 0 1 12.1 14.5A0.4 0.4 0 0 1 12.5 14.1A0.4 0.4 0 0 1 12.9 14.5ZM14.9 14.5A0.4 0.4 0 0 1 14.5 14.9A0.4 0.4 0 0 1 14.1 14.5A0.4 0.4 0 0 1 14.5 14.1A0.4 0.4 0 0 1 14.9 14.5ZM16.9 14.5A0.4 0.4 0 0 1 16.5 14.9A0.4 0.4 0 0 1 16.1 14.5A0.4 0.4 0 0 1 16.5 14.1A0.4 0.4 0 0 1 16.9 14.5ZM18.9 14.5A0.4 0.4 0 0 1 18.5 14.9A0.4 0.4 0 0 1 18.1 14.5A0.4 0.4 0 0 1 18.5 14.1A0.4 0.4 0 0 1 18.9 14.5ZM21.9 14.5A0.4 0.4 0 0 1 21.5 14.9A0.4 0.4 0 0 1 21.1 14.5A0.4 0.4 0 0 1 21.5 14.1A0.4 0.4 0 0 1 21.9 14.5ZM22.9 14.5A0.4 0.4 0 0 1 22.5 14.9A0.4 0.4 0 0 1 22.1 14.5A0.4 0.4 0 0 1 22.5 14.1A0.4 0.4 0 0 1 22.9 14.5ZM24.9 14.5A0.4 0.4 0 0 1 24.5 14.9A0.4 0.4 0 0 1 24.1 14.5A0.4 0.4 0 0 1 24.5 14.1A0.4 0.4 0 0 1 24.9 14.5ZM25.9 14.5A0.4 0.4 0 0 1 25.5 14.9A0.4 0.4 0 0 1 25.1 14.5A0.4 0.4 0 0 1 25.5 14.1A0.4 0.4 0 0 1 25.9 14.5ZM26.9 14.5A0.4 0.4 0 0 1 26.5 14.9A0.4 0.4 0 0 1 26.1 14.5A0.4 0.4 0 0 1 26.5 14.1A0.4 0.4 0 0 1 26.9 14.5ZM27.9 14.5A0.4 0.4 0 0 1 27.5 14.9A0.4 0.4 0 0 1 27.1 14.5A0.4 0.4 0 0 1 27.5 14.1A0.4 0.4 0 0 1 27.9 14.5ZM28.9 14.5A0.4 0.4 0 0 1 28.5 14.9A0.4 0.4 0 0 1 28.1 14.5A0.4 0.4 0 0 1 28.5 14.1A0.4 0.4 0 0 1 28.9 14.5ZM0.9 15.5A0.4 0.4 0 0 1 0.5 15.9A0.4 0.4 0 0 1 0.1 15.5A0.4 0.4 0 0 1 0.5 15.1A0.4 0.4 0 0 1 0.9 15.5ZM1.9 15.5A0.4 0.4 0 0 1 1.5 15.9A0.4 0.4 0 0 1 1.1 15.5A0.4 0.4 0 0 1 1.5 15.1A0.4 0.4 0 0 1 1.9 15.5ZM2.9 15.5A0.4 0.4 0 0 1 2.5 15.9A0.4 0.4 0 0 1 2.1 15.5A0.4 0.4 0 0 1 2.5 15.1A0.4 0.4 0 0 1 2.9 15.5ZM3.9 15.5A0.4 0.4 0 0 1 3.5 15.9A0.4 0.4 0 0 1 3.1 15.5A0.4 0.4 0 0 1 3.5 15.1A0.4 0.4 0 0 1 3.9 15.5ZM9.9 15.5A0.4 0.4 0 0 1 9.5 15.9A0.4 0.4 0 0 1 9.1 15.5A0.4 0.4 0 0 1 9.5 15.1A0.4 0.4 0 0 1 9.9 15.5ZM12.9 15.5A0.4 0.4 0 0 1 12.5 15.9A0.4 0.4 0 0 1 12.1 15.5A0.4 0.4 0 0 1 12.5 15.1A0.4 0.4 0 0 1 12.9 15.5ZM13.9 15.5A0.4 0.4 0 0 1 13.5 15.9A0.4 0.4 0 0 1 13.1 15.5A0.4 0.4 0 0 1 13.5 15.1A0.4 0.4 0 0 1 13.9 15.5ZM14.9 15.5A0.4 0.4 0 0 1 14.5 15.9A0.4 0.4 0 0 1 14.1 15.5A0.4 0.4 0 0 1 14.5 15.1A0.4 0.4 0 0 1 14.9 15.5ZM17.9 15.5A0.4 0.4 0 0 1 17.5 15.9A0.4 0.4 0 0 1 17.1 15.5A0.4 0.4 0 0 1 17.5 15.1A0.4 0.4 0 0 1 17.9 15.5ZM18.9 15.5A0.4 0.4 0 0 1 18.5 15.9A0.4 0.4 0 0 1 18.1 15.5A0.4 0.4 0 0 1 18.5 15.1A0.4 0.4 0 0 1 18.9 15.5ZM19.9 15.5A0.4 0.4 0 0 1 19.5 15.9A0.4 0.4 0 0 1 19.1 15.5A0.4 0.4 0 0 1 19.5 15.1A0.4 0.4 0 0 1 19.9 15.5ZM21.9 15.5A0.4 0.4 0 0 1 21.5 15.9A0.4 0.4 0 0 1 21.1 15.5A0.4 0.4 0 0 1 21.5 15.1A0.4 0.4 0 0 1 21.9 15.5ZM22.9 15.5A0.4 0.4 0 0 1 22.5 15.9A0.4 0.4 0 0 1 22.1 15.5A0.4 0.4 0 0 1 22.5 15.1A0.4 0.4 0 0 1 22.9 15.5ZM23.9 15.5A0.4 0.4 0 0 1 23.5 15.9A0.4 0.4 0 0 1 23.1 15.5A0.4 0.4 0 0 1 23.5 15.1A0.4 0.4 0 0 1 23.9 15.5ZM25.9 15.5A0.4 0.4 0 0 1 25.5 15.9A0.4 0.4 0 0 1 25.1 15.5A0.4 0.4 0 0 1 25.5 15.1A0.4 0.4 0 0 1 25.9 15.5ZM3.9 16.5A0.4 0.4 0 0 1 3.5 16.9A0.4 0.4 0 0 1 3.1 16.5A0.4 0.4 0 0 1 3.5 16.1A0.4 0.4 0 0 1 3.9 16.5ZM5.9 16.5A0.4 0.4 0 0 1 5.5 16.9A0.4 0.4 0 0 1 5.1 16.5A0.4 0.4 0 0 1 5.5 16.1A0.4 0.4 0 0 1 5.9 16.5ZM6.9 16.5A0.4 0.4 0 0 1 6.5 16.9A0.4 0.4 0 0 1 6.1 16.5A0.4 0.4 0 0 1 6.5 16.1A0.4 0.4 0 0 1 6.9 16.5ZM7.9 16.5A0.4 0.4 0 0 1 7.5 16.9A0.4 0.4 0 0 1 7.1 16.5A0.4 0.4 0 0 1 7.5 16.1A0.4 0.4 0 0 1 7.9 16.5ZM9.9 16.5A0.4 0.4 0 0 1 9.5 16.9A0.4 0.4 0 0 1 9.1 16.5A0.4 0.4 0 0 1 9.5 16.1A0.4 0.4 0 0 1 9.9 16.5ZM11.9 16.5A0.4 0.4 0 0 1 11.5 16.9A0.4 0.4 0 0 1 11.1 16.5A0.4 0.4 0 0 1 11.5 16.1A0.4 0.4 0 0 1 11.9 16.5ZM14.9 16.5A0.4 0.4 0 0 1 14.5 16.9A0.4 0.4 0 0 1 14.1 16.5A0.4 0.4 0 0 1 14.5 16.1A0.4 0.4 0 0 1 14.9 16.5ZM16.9 16.5A0.4 0.4 0 0 1 16.5 16.9A0.4 0.4 0 0 1 16.1 16.5A0.4 0.4 0 0 1 16.5 16.1A0.4 0.4 0 0 1 16.9 16.5ZM17.9 16.5A0.4 0.4 0 0 1 17.5 16.9A0.4 0.4 0 0 1 17.1 16.5A0.4 0.4 0 0 1 17.5 16.1A0.4 0.4 0 0 1 17.9 16.5ZM20.9 16.5A0.4 0.4 0 0 1 20.5 16.9A0.4 0.4 0 0 1 20.1 16.5A0.4 0.4 0 0 1 20.5 16.1A0.4 0.4 0 0 1 20.9 16.5ZM21.9 16.5A0.4 0.4 0 0 1 21.5 16.9A0.4 0.4 0 0 1 21.1 16.5A0.4 0.4 0 0 1 21.5 16.1A0.4 0.4 0 0 1 21.9 16.5ZM22.9 16.5A0.4 0.4 0 0 1 22.5 16.9A0.4 0.4 0 0 1 22.1 16.5A0.4 0.4 0 0 1 22.5 16.1A0.4 0.4 0 0 1 22.9 16.5ZM28.9 16.5A0.4 0.4 0 0 1 28.5 16.9A0.4 0.4 0 0 1 28.1 16.5A0.4 0.4 0 0 1 28.5 16.1A0.4 0.4 0 0 1 28.9 16.5ZM2.9 17.5A0.4 0.4 0 0 1 2.5 17.9A0.4 0.4 0 0 1 2.1 17.5A0.4 0.4 0 0 1 2.5 17.1A0.4 0.4 0 0 1 2.9 17.5ZM4.9 17.5A0.4 0.4 0 0 1 4.5 17.9A0.4 0.4 0 0 1 4.1 17.5A0.4 0.4 0 0 1 4.5 17.1A0.4 0.4 0 0 1 4.9 17.5ZM8.9 17.5A0.4 0.4 0 0 1 8.5 17.9A0.4 0.4 0 0 1 8.1 17.5A0.4 0.4 0 0 1 8.5 17.1A0.4 0.4 0 0 1 8.9 17.5ZM9.9 17.5A0.4 0.4 0 0 1 9.5 17.9A0.4 0.4 0 0 1 9.1 17.5A0.4 0.4 0 0 1 9.5 17.1A0.4 0.4 0 0 1 9.9 17.5ZM10.9 17.5A0.4 0.4 0 0 1 10.5 17.9A0.4 0.4 0 0 1 10.1 17.5A0.4 0.4 0 0 1 10.5 17.1A0.4 0.4 0 0 1 10.9 17.5ZM11.9 17.5A0.4 0.4 0 0 1 11.5 17.9A0.4 0.4 0 0 1 11.1 17.5A0.4 0.4 0 0 1 11.5 17.1A0.4 0.4 0 0 1 11.9 17.5ZM14.9 17.5A0.4 0.4 0 0 1 14.5 17.9A0.4 0.4 0 0 1 14.1 17.5A0.4 0.4 0 0 1 14.5 17.1A0.4 0.4 0 0 1 14.9 17.5ZM16.9 17.5A0.4 0.4 0 0 1 16.5 17.9A0.4 0.4 0 0 1 16.1 17.5A0.4 0.4 0 0 1 16.5 17.1A0.4 0.4 0 0 1 16.9 17.5ZM20.9 17.5A0.4 0.4 0 0 1 20.5 17.9A0.4 0.4 0 0 1 20.1 17.5A0.4 0.4 0 0 1 20.5 17.1A0.4 0.4 0 0 1 20.9 17.5ZM21.9 17.5A0.4 0.4 0 0 1 21.5 17.9A0.4 0.4 0 0 1 21.1 17.5A0.4 0.4 0 0 1 21.5 17.1A0.4 0.4 0 0 1 21.9 17.5ZM22.9 17.5A0.4 0.4 0 0 1 22.5 17.9A0.4 0.4 0 0 1 22.1 17.5A0.4 0.4 0 0 1 22.5 17.1A0.4 0.4 0 0 1 22.9 17.5ZM23.9 17.5A0.4 0.4 0 0 1 23.5 17.9A0.4 0.4 0 0 1 23.1 17.5A0.4 0.4 0 0 1 23.5 17.1A0.4 0.4 0 0 1 23.9 17.5ZM25.9 17.5A0.4 0.4 0 0 1 25.5 17.9A0.4 0.4 0 0 1 25.1 17.5A0.4 0.4 0 0 1 25.5 17.1A0.4 0.4 0 0 1 25.9 17.5ZM27.9 17.5A0.4 0.4 0 0 1 27.5 17.9A0.4 0.4 0 0 1 27.1 17.5A0.4 0.4 0 0 1 27.5 17.1A0.4 0.4 0 0 1 27.9 17.5ZM28.9 17.5A0.4 0.4 0 0 1 28.5 17.9A0.4 0.4 0 0 1 28.1 17.5A0.4 0.4 0 0 1 28.5 17.1A0.4 0.4 0 0 1 28.9 17.5ZM0.9 18.5A0.4 0.4 0 0 1 0.5 18.9A0.4 0.4 0 0 1 0.1 18.5A0.4 0.4 0 0 1 0.5 18.1A0.4 0.4 0 0 1 0.9 18.5ZM4.9 18.5A0.4 0.4 0 0 1 4.5 18.9A0.4 0.4 0 0 1 4.1 18.5A0.4 0.4 0 0 1 4.5 18.1A0.4 0.4 0 0 1 4.9 18.5ZM6.9 18.5A0.4 0.4 0 0 1 6.5 18.9A0.4 0.4 0 0 1 6.1 18.5A0.4 0.4 0 0 1 6.5 18.1A0.4 0.4 0 0 1 6.9 18.5ZM7.9 18.5A0.4 0.4 0 0 1 7.5 18.9A0.4 0.4 0 0 1 7.1 18.5A0.4 0.4 0 0 1 7.5 18.1A0.4 0.4 0 0 1 7.9 18.5ZM8.9 18.5A0.4 0.4 0 0 1 8.5 18.9A0.4 0.4 0 0 1 8.1 18.5A0.4 0.4 0 0 1 8.5 18.1A0.4 0.4 0 0 1 8.9 18.5ZM13.9 18.5A0.4 0.4 0 0 1 13.5 18.9A0.4 0.4 0 0 1 13.1 18.5A0.4 0.4 0 0 1 13.5 18.1A0.4 0.4 0 0 1 13.9 18.5ZM17.9 18.5A0.4 0.4 0 0 1 17.5 18.9A0.4 0.4 0 0 1 17.1 18.5A0.4 0.4 0 0 1 17.5 18.1A0.4 0.4 0 0 1 17.9 18.5ZM18.9 18.5A0.4 0.4 0 0 1 18.5 18.9A0.4 0.4 0 0 1 18.1 18.5A0.4 0.4 0 0 1 18.5 18.1A0.4 0.4 0 0 1 18.9 18.5ZM22.9 18.5A0.4 0.4 0 0 1 22.5 18.9A0.4 0.4 0 0 1 22.1 18.5A0.4 0.4 0 0 1 22.5 18.1A0.4 0.4 0 0 1 22.9 18.5ZM26.9 18.5A0.4 0.4 0 0 1 26.5 18.9A0.4 0.4 0 0 1 26.1 18.5A0.4 0.4 0 0 1 26.5 18.1A0.4 0.4 0 0 1 26.9 18.5ZM27.9 18.5A0.4 0.4 0 0 1 27.5 18.9A0.4 0.4 0 0 1 27.1 18.5A0.4 0.4 0 0 1 27.5 18.1A0.4 0.4 0 0 1 27.9 18.5ZM28.9 18.5A0.4 0.4 0 0 1 28.5 18.9A0.4 0.4 0 0 1 28.1 18.5A0.4 0.4 0 0 1 28.5 18.1A0.4 0.4 0 0 1 28.9 18.5ZM1.9 19.5A0.4 0.4 0 0 1 1.5 19.9A0.4 0.4 0 0 1 1.1 19.5A0.4 0.4 0 0 1 1.5 19.1A0.4 0.4 0 0 1 1.9 19.5ZM8.9 19.5A0.4 0.4 0 0 1 8.5 19.9A0.4 0.4 0 0 1 8.1 19.5A0.4 0.4 0 0 1 8.5 19.1A0.4 0.4 0 0 1 8.9 19.5ZM9.9 19.5A0.4 0.4 0 0 1 9.5 19.9A0.4 0.4 0 0 1 9.1 19.5A0.4 0.4 0 0 1 9.5 19.1A0.4 0.4 0 0 1 9.9 19.5ZM11.9 19.5A0.4 0.4 0 0 1 11.5 19.9A0.4 0.4 0 0 1 11.1 19.5A0.4 0.4 0 0 1 11.5 19.1A0.4 0.4 0 0 1 11.9 19.5ZM15.9 19.5A0.4 0.4 0 0 1 15.5 19.9A0.4 0.4 0 0 1 15.1 19.5A0.4 0.4 0 0 1 15.5 19.1A0.4 0.4 0 0 1 15.9 19.5ZM17.9 19.5A0.4 0.4 0 0 1 17.5 19.9A0.4 0.4 0 0 1 17.1 19.5A0.4 0.4 0 0 1 17.5 19.1A0.4 0.4 0 0 1 17.9 19.5ZM19.9 19.5A0.4 0.4 0 0 1 19.5 19.9A0.4 0.4 0 0 1 19.1 19.5A0.4 0.4 0 0 1 19.5 19.1A0.4 0.4 0 0 1 19.9 19.5ZM20.9 19.5A0.4 0.4 0 0 1 20.5 19.9A0.4 0.4 0 0 1 20.1 19.5A0.4 0.4 0 0 1 20.5 19.1A0.4 0.4 0 0 1 20.9 19.5ZM24.9 19.5A0.4 0.4 0 0 1 24.5 19.9A0.4 0.4 0 0 1 24.1 19.5A0.4 0.4 0 0 1 24.5 19.1A0.4 0.4 0 0 1 24.9 19.5ZM27.9 19.5A0.4 0.4 0 0 1 27.5 19.9A0.4 0.4 0 0 1 27.1 19.5A0.4 0.4 0 0 1 27.5 19.1A0.4 0.4 0 0 1 27.9 19.5ZM28.9 19.5A0.4 0.4 0 0 1 28.5 19.9A0.4 0.4 0 0 1 28.1 19.5A0.4 0.4 0 0 1 28.5 19.1A0.4 0.4 0 0 1 28.9 19.5ZM0.9 20.5A0.4 0.4 0 0 1 0.5 20.9A0.4 0.4 0 0 1 0.1 20.5A0.4 0.4 0 0 1 0.5 20.1A0.4 0.4 0 0 1 0.9 20.5ZM3.9 20.5A0.4 0.4 0 0 1 3.5 20.9A0.4 0.4 0 0 1 3.1 20.5A0.4 0.4 0 0 1 3.5 20.1A0.4 0.4 0 0 1 3.9 20.5ZM4.9 20.5A0.4 0.4 0 0 1 4.5 20.9A0.4 0.4 0 0 1 4.1 20.5A0.4 0.4 0 0 1 4.5 20.1A0.4 0.4 0 0 1 4.9 20.5ZM6.9 20.5A0.4 0.4 0 0 1 6.5 20.9A0.4 0.4 0 0 1 6.1 20.5A0.4 0.4 0 0 1 6.5 20.1A0.4 0.4 0 0 1 6.9 20.5ZM8.9 20.5A0.4 0.4 0 0 1 8.5 20.9A0.4 0.4 0 0 1 8.1 20.5A0.4 0.4 0 0 1 8.5 20.1A0.4 0.4 0 0 1 8.9 20.5ZM12.9 20.5A0.4 0.4 0 0 1 12.5 20.9A0.4 0.4 0 0 1 12.1 20.5A0.4 0.4 0 0 1 12.5 20.1A0.4 0.4 0 0 1 12.9 20.5ZM16.9 20.5A0.4 0.4 0 0 1 16.5 20.9A0.4 0.4 0 0 1 16.1 20.5A0.4 0.4 0 0 1 16.5 20.1A0.4 0.4 0 0 1 16.9 20.5ZM17.9 20.5A0.4 0.4 0 0 1 17.5 20.9A0.4 0.4 0 0 1 17.1 20.5A0.4 0.4 0 0 1 17.5 20.1A0.4 0.4 0 0 1 17.9 20.5ZM19.9 20.5A0.4 0.4 0 0 1 19.5 20.9A0.4 0.4 0 0 1 19.1 20.5A0.4 0.4 0 0 1 19.5 20.1A0.4 0.4 0 0 1 19.9 20.5ZM20.9 20.5A0.4 0.4 0 0 1 20.5 20.9A0.4 0.4 0 0 1 20.1 20.5A0.4 0.4 0 0 1 20.5 20.1A0.4 0.4 0 0 1 20.9 20.5ZM21.9 20.5A0.4 0.4 0 0 1 21.5 20.9A0.4 0.4 0 0 1 21.1 20.5A0.4 0.4 0 0 1 21.5 20.1A0.4 0.4 0 0 1 21.9 20.5ZM22.9 20.5A0.4 0.4 0 0 1 22.5 20.9A0.4 0.4 0 0 1 22.1 20.5A0.4 0.4 0 0 1 22.5 20.1A0.4 0.4 0 0 1 22.9 20.5ZM23.9 20.5A0.4 0.4 0 0 1 23.5 20.9A0.4 0.4 0 0 1 23.1 20.5A0.4 0.4 0 0 1 23.5 20.1A0.4 0.4 0 0 1 23.9 20.5ZM24.9 20.5A0.4 0.4 0 0 1 24.5 20.9A0.4 0.4 0 0 1 24.1 20.5A0.4 0.4 0 0 1 24.5 20.1A0.4 0.4 0 0 1 24.9 20.5ZM26.9 20.5A0.4 0.4 0 0 1 26.5 20.9A0.4 0.4 0 0 1 26.1 20.5A0.4 0.4 0 0 1 26.5 20.1A0.4 0.4 0 0 1 26.9 20.5ZM27.9 20.5A0.4 0.4 0 0 1 27.5 20.9A0.4 0.4 0 0 1 27.1 20.5A0.4 0.4 0 0 1 27.5 20.1A0.4 0.4 0 0 1 27.9 20.5ZM8.9 21.5A0.4 0.4 0 0 1 8.5 21.9A0.4 0.4 0 0 1 8.1 21.5A0.4 0.4 0 0 1 8.5 21.1A0.4 0.4 0 0 1 8.9 21.5ZM11.9 21.5A0.4 0.4 0 0 1 11.5 21.9A0.4 0.4 0 0 1 11.1 21.5A0.4 0.4 0 0 1 11.5 21.1A0.4 0.4 0 0 1 11.9 21.5ZM12.9 21.5A0.4 0.4 0 0 1 12.5 21.9A0.4 0.4 0 0 1 12.1 21.5A0.4 0.4 0 0 1 12.5 21.1A0.4 0.4 0 0 1 12.9 21.5ZM13.9 21.5A0.4 0.4 0 0 1 13.5 21.9A0.4 0.4 0 0 1 13.1 21.5A0.4 0.4 0 0 1 13.5 21.1A0.4 0.4 0 0 1 13.9 21.5ZM15.9 21.5A0.4 0.4 0 0 1 15.5 21.9A0.4 0.4 0 0 1 15.1 21.5A0.4 0.4 0 0 1 15.5 21.1A0.4 0.4 0 0 1 15.9 21.5ZM16.9 21.5A0.4 0.4 0 0 1 16.5 21.9A0.4 0.4 0 0 1 16.1 21.5A0.4 0.4 0 0 1 16.5 21.1A0.4 0.4 0 0 1 16.9 21.5ZM19.9 21.5A0.4 0.4 0 0 1 19.5 21.9A0.4 0.4 0 0 1 19.1 21.5A0.4 0.4 0 0 1 19.5 21.1A0.4 0.4 0 0 1 19.9 21.5ZM20.9 21.5A0.4 0.4 0 0 1 20.5 21.9A0.4 0.4 0 0 1 20.1 21.5A0.4 0.4 0 0 1 20.5 21.1A0.4 0.4 0 0 1 20.9 21.5ZM24.9 21.5A0.4 0.4 0 0 1 24.5 21.9A0.4 0.4 0 0 1 24.1 21.5A0.4 0.4 0 0 1 24.5 21.1A0.4 0.4 0 0 1 24.9 21.5ZM25.9 21.5A0.4 0.4 0 0 1 25.5 21.9A0.4 0.4 0 0 1 25.1 21.5A0.4 0.4 0 0 1 25.5 21.1A0.4 0.4 0 0 1 25.9 21.5ZM26.9 21.5A0.4 0.4 0 0 1 26.5 21.9A0.4 0.4 0 0 1 26.1 21.5A0.4 0.4 0 0 1 26.5 21.1A0.4 0.4 0 0 1 26.9 21.5ZM27.9 21.5A0.4 0.4 0 0 1 27.5 21.9A0.4 0.4 0 0 1 27.1 21.5A0.4 0.4 0 0 1 27.5 21.1A0.4 0.4 0 0 1 27.9 21.5ZM8.9 22.5A0.4 0.4 0 0 1 8.5 22.9A0.4 0.4 0 0 1 8.1 22.5A0.4 0.4 0 0 1 8.5 22.1A0.4 0.4 0 0 1 8.9 22.5ZM11.9 22.5A0.4 0.4 0 0 1 11.5 22.9A0.4 0.4 0 0 1 11.1 22.5A0.4 0.4 0 0 1 11.5 22.1A0.4 0.4 0 0 1 11.9 22.5ZM12.9 22.5A0.4 0.4 0 0 1 12.5 22.9A0.4 0.4 0 0 1 12.1 22.5A0.4 0.4 0 0 1 12.5 22.1A0.4 0.4 0 0 1 12.9 22.5ZM14.9 22.5A0.4 0.4 0 0 1 14.5 22.9A0.4 0.4 0 0 1 14.1 22.5A0.4 0.4 0 0 1 14.5 22.1A0.4 0.4 0 0 1 14.9 22.5ZM16.9 22.5A0.4 0.4 0 0 1 16.5 22.9A0.4 0.4 0 0 1 16.1 22.5A0.4 0.4 0 0 1 16.5 22.1A0.4 0.4 0 0 1 16.9 22.5ZM17.9 22.5A0.4 0.4 0 0 1 17.5 22.9A0.4 0.4 0 0 1 17.1 22.5A0.4 0.4 0 0 1 17.5 22.1A0.4 0.4 0 0 1 17.9 22.5ZM18.9 22.5A0.4 0.4 0 0 1 18.5 22.9A0.4 0.4 0 0 1 18.1 22.5A0.4 0.4 0 0 1 18.5 22.1A0.4 0.4 0 0 1 18.9 22.5ZM20.9 22.5A0.4 0.4 0 0 1 20.5 22.9A0.4 0.4 0 0 1 20.1 22.5A0.4 0.4 0 0 1 20.5 22.1A0.4 0.4 0 0 1 20.9 22.5ZM22.9 22.5A0.4 0.4 0 0 1 22.5 22.9A0.4 0.4 0 0 1 22.1 22.5A0.4 0.4 0 0 1 22.5 22.1A0.4 0.4 0 0 1 22.9 22.5ZM24.9 22.5A0.4 0.4 0 0 1 24.5 22.9A0.4 0.4 0 0 1 24.1 22.5A0.4 0.4 0 0 1 24.5 22.1A0.4 0.4 0 0 1 24.9 22.5ZM25.9 22.5A0.4 0.4 0 0 1 25.5 22.9A0.4 0.4 0 0 1 25.1 22.5A0.4 0.4 0 0 1 25.5 22.1A0.4 0.4 0 0 1 25.9 22.5ZM27.9 22.5A0.4 0.4 0 0 1 27.5 22.9A0.4 0.4 0 0 1 27.1 22.5A0.4 0.4 0 0 1 27.5 22.1A0.4 0.4 0 0 1 27.9 22.5ZM28.9 22.5A0.4 0.4 0 0 1 28.5 22.9A0.4 0.4 0 0 1 28.1 22.5A0.4 0.4 0 0 1 28.5 22.1A0.4 0.4 0 0 1 28.9 22.5ZM8.9 23.5A0.4 0.4 0 0 1 8.5 23.9A0.4 0.4 0 0 1 8.1 23.5A0.4 0.4 0 0 1 8.5 23.1A0.4 0.4 0 0 1 8.9 23.5ZM9.9 23.5A0.4 0.4 0 0 1 9.5 23.9A0.4 0.4 0 0 1 9.1 23.5A0.4 0.4 0 0 1 9.5 23.1A0.4 0.4 0 0 1 9.9 23.5ZM12.9 23.5A0.4 0.4 0 0 1 12.5 23.9A0.4 0.4 0 0 1 12.1 23.5A0.4 0.4 0 0 1 12.5 23.1A0.4 0.4 0 0 1 12.9 23.5ZM13.9 23.5A0.4 0.4 0 0 1 13.5 23.9A0.4 0.4 0 0 1 13.1 23.5A0.4 0.4 0 0 1 13.5 23.1A0.4 0.4 0 0 1 13.9 23.5ZM14.9 23.5A0.4 0.4 0 0 1 14.5 23.9A0.4 0.4 0 0 1 14.1 23.5A0.4 0.4 0 0 1 14.5 23.1A0.4 0.4 0 0 1 14.9 23.5ZM15.9 23.5A0.4 0.4 0 0 1 15.5 23.9A0.4 0.4 0 0 1 15.1 23.5A0.4 0.4 0 0 1 15.5 23.1A0.4 0.4 0 0 1 15.9 23.5ZM17.9 23.5A0.4 0.4 0 0 1 17.5 23.9A0.4 0.4 0 0 1 17.1 23.5A0.4 0.4 0 0 1 17.5 23.1A0.4 0.4 0 0 1 17.9 23.5ZM20.9 23.5A0.4 0.4 0 0 1 20.5 23.9A0.4 0.4 0 0 1 20.1 23.5A0.4 0.4 0 0 1 20.5 23.1A0.4 0.4 0 0 1 20.9 23.5ZM24.9 23.5A0.4 0.4 0 0 1 24.5 23.9A0.4 0.4 0 0 1 24.1 23.5A0.4 0.4 0 0 1 24.5 23.1A0.4 0.4 0 0 1 24.9 23.5ZM27.9 23.5A0.4 0.4 0 0 1 27.5 23.9A0.4 0.4 0 0 1 27.1 23.5A0.4 0.4 0 0 1 27.5 23.1A0.4 0.4 0 0 1 27.9 23.5ZM8.9 24.5A0.4 0.4 0 0 1 8.5 24.9A0.4 0.4 0 0 1 8.1 24.5A0.4 0.4 0 0 1 8.5 24.1A0.4 0.4 0 0 1 8.9 24.5ZM10.9 24.5A0.4 0.4 0 0 1 10.5 24.9A0.4 0.4 0 0 1 10.1 24.5A0.4 0.4 0 0 1 10.5 24.1A0.4 0.4 0 0 1 10.9 24.5ZM11.9 24.5A0.4 0.4 0 0 1 11.5 24.9A0.4 0.4 0 0 1 11.1 24.5A0.4 0.4 0 0 1 11.5 24.1A0.4 0.4 0 0 1 11.9 24.5ZM14.9 24.5A0.4 0.4 0 0 1 14.5 24.9A0.4 0.4 0 0 1 14.1 24.5A0.4 0.4 0 0 1 14.5 24.1A0.4 0.4 0 0 1 14.9 24.5ZM16.9 24.5A0.4 0.4 0 0 1 16.5 24.9A0.4 0.4 0 0 1 16.1 24.5A0.4 0.4 0 0 1 16.5 24.1A0.4 0.4 0 0 1 16.9 24.5ZM17.9 24.5A0.4 0.4 0 0 1 17.5 24.9A0.4 0.4 0 0 1 17.1 24.5A0.4 0.4 0 0 1 17.5 24.1A0.4 0.4 0 0 1 17.9 24.5ZM20.9 24.5A0.4 0.4 0 0 1 20.5 24.9A0.4 0.4 0 0 1 20.1 24.5A0.4 0.4 0 0 1 20.5 24.1A0.4 0.4 0 0 1 20.9 24.5ZM21.9 24.5A0.4 0.4 0 0 1 21.5 24.9A0.4 0.4 0 0 1 21.1 24.5A0.4 0.4 0 0 1 21.5 24.1A0.4 0.4 0 0 1 21.9 24.5ZM22.9 24.5A0.4 0.4 0 0 1 22.5 24.9A0.4 0.4 0 0 1 22.1 24.5A0.4 0.4 0 0 1 22.5 24.1A0.4 0.4 0 0 1 22.9 24.5ZM23.9 24.5A0.4 0.4 0 0 1 23.5 24.9A0.4 0.4 0 0 1 23.1 24.5A0.4 0.4 0 0 1 23.5 24.1A0.4 0.4 0 0 1 23.9 24.5ZM24.9 24.5A0.4 0.4 0 0 1 24.5 24.9A0.4 0.4 0 0 1 24.1 24.5A0.4 0.4 0 0 1 24.5 24.1A0.4 0.4 0 0 1 24.9 24.5ZM27.9 24.5A0.4 0.4 0 0 1 27.5 24.9A0.4 0.4 0 0 1 27.1 24.5A0.4 0.4 0 0 1 27.5 24.1A0.4 0.4 0 0 1 27.9 24.5ZM28.9 24.5A0.4 0.4 0 0 1 28.5 24.9A0.4 0.4 0 0 1 28.1 24.5A0.4 0.4 0 0 1 28.5 24.1A0.4 0.4 0 0 1 28.9 24.5ZM9.9 25.5A0.4 0.4 0 0 1 9.5 25.9A0.4 0.4 0 0 1 9.1 25.5A0.4 0.4 0 0 1 9.5 25.1A0.4 0.4 0 0 1 9.9 25.5ZM10.9 25.5A0.4 0.4 0 0 1 10.5 25.9A0.4 0.4 0 0 1 10.1 25.5A0.4 0.4 0 0 1 10.5 25.1A0.4 0.4 0 0 1 10.9 25.5ZM11.9 25.5A0.4 0.4 0 0 1 11.5 25.9A0.4 0.4 0 0 1 11.1 25.5A0.4 0.4 0 0 1 11.5 25.1A0.4 0.4 0 0 1 11.9 25.5ZM14.9 25.5A0.4 0.4 0 0 1 14.5 25.9A0.4 0.4 0 0 1 14.1 25.5A0.4 0.4 0 0 1 14.5 25.1A0.4 0.4 0 0 1 14.9 25.5ZM17.9 25.5A0.4 0.4 0 0 1 17.5 25.9A0.4 0.4 0 0 1 17.1 25.5A0.4 0.4 0 0 1 17.5 25.1A0.4 0.4 0 0 1 17.9 25.5ZM19.9 25.5A0.4 0.4 0 0 1 19.5 25.9A0.4 0.4 0 0 1 19.1 25.5A0.4 0.4 0 0 1 19.5 25.1A0.4 0.4 0 0 1 19.9 25.5ZM20.9 25.5A0.4 0.4 0 0 1 20.5 25.9A0.4 0.4 0 0 1 20.1 25.5A0.4 0.4 0 0 1 20.5 25.1A0.4 0.4 0 0 1 20.9 25.5ZM23.9 25.5A0.4 0.4 0 0 1 23.5 25.9A0.4 0.4 0 0 1 23.1 25.5A0.4 0.4 0 0 1 23.5 25.1A0.4 0.4 0 0 1 23.9 25.5ZM24.9 25.5A0.4 0.4 0 0 1 24.5 25.9A0.4 0.4 0 0 1 24.1 25.5A0.4 0.4 0 0 1 24.5 25.1A0.4 0.4 0 0 1 24.9 25.5ZM25.9 25.5A0.4 0.4 0 0 1 25.5 25.9A0.4 0.4 0 0 1 25.1 25.5A0.4 0.4 0 0 1 25.5 25.1A0.4 0.4 0 0 1 25.9 25.5ZM26.9 25.5A0.4 0.4 0 0 1 26.5 25.9A0.4 0.4 0 0 1 26.1 25.5A0.4 0.4 0 0 1 26.5 25.1A0.4 0.4 0 0 1 26.9 25.5ZM27.9 25.5A0.4 0.4 0 0 1 27.5 25.9A0.4 0.4 0 0 1 27.1 25.5A0.4 0.4 0 0 1 27.5 25.1A0.4 0.4 0 0 1 27.9 25.5ZM28.9 25.5A0.4 0.4 0 0 1 28.5 25.9A0.4 0.4 0 0 1 28.1 25.5A0.4 0.4 0 0 1 28.5 25.1A0.4 0.4 0 0 1 28.9 25.5ZM8.9 26.5A0.4 0.4 0 0 1 8.5 26.9A0.4 0.4 0 0 1 8.1 26.5A0.4 0.4 0 0 1 8.5 26.1A0.4 0.4 0 0 1 8.9 26.5ZM9.9 26.5A0.4 0.4 0 0 1 9.5 26.9A0.4 0.4 0 0 1 9.1 26.5A0.4 0.4 0 0 1 9.5 26.1A0.4 0.4 0 0 1 9.9 26.5ZM13.9 26.5A0.4 0.4 0 0 1 13.5 26.9A0.4 0.4 0 0 1 13.1 26.5A0.4 0.4 0 0 1 13.5 26.1A0.4 0.4 0 0 1 13.9 26.5ZM16.9 26.5A0.4 0.4 0 0 1 16.5 26.9A0.4 0.4 0 0 1 16.1 26.5A0.4 0.4 0 0 1 16.5 26.1A0.4 0.4 0 0 1 16.9 26.5ZM18.9 26.5A0.4 0.4 0 0 1 18.5 26.9A0.4 0.4 0 0 1 18.1 26.5A0.4 0.4 0 0 1 18.5 26.1A0.4 0.4 0 0 1 18.9 26.5ZM21.9 26.5A0.4 0.4 0 0 1 21.5 26.9A0.4 0.4 0 0 1 21.1 26.5A0.4 0.4 0 0 1 21.5 26.1A0.4 0.4 0 0 1 21.9 26.5ZM23.9 26.5A0.4 0.4 0 0 1 23.5 26.9A0.4 0.4 0 0 1 23.1 26.5A0.4 0.4 0 0 1 23.5 26.1A0.4 0.4 0 0 1 23.9 26.5ZM24.9 26.5A0.4 0.4 0 0 1 24.5 26.9A0.4 0.4 0 0 1 24.1 26.5A0.4 0.4 0 0 1 24.5 26.1A0.4 0.4 0 0 1 24.9 26.5ZM26.9 26.5A0.4 0.4 0 0 1 26.5 26.9A0.4 0.4 0 0 1 26.1 26.5A0.4 0.4 0 0 1 26.5 26.1A0.4 0.4 0 0 1 26.9 26.5ZM28.9 26.5A0.4 0.4 0 0 1 28.5 26.9A0.4 0.4 0 0 1 28.1 26.5A0.4 0.4 0 0 1 28.5 26.1A0.4 0.4 0 0 1 28.9 26.5ZM8.9 27.5A0.4 0.4 0 0 1 8.5 27.9A0.4 0.4 0 0 1 8.1 27.5A0.4 0.4 0 0 1 8.5 27.1A0.4 0.4 0 0 1 8.9 27.5ZM9.9 27.5A0.4 0.4 0 0 1 9.5 27.9A0.4 0.4 0 0 1 9.1 27.5A0.4 0.4 0 0 1 9.5 27.1A0.4 0.4 0 0 1 9.9 27.5ZM10.9 27.5A0.4 0.4 0 0 1 10.5 27.9A0.4 0.4 0 0 1 10.1 27.5A0.4 0.4 0 0 1 10.5 27.1A0.4 0.4 0 0 1 10.9 27.5ZM11.9 27.5A0.4 0.4 0 0 1 11.5 27.9A0.4 0.4 0 0 1 11.1 27.5A0.4 0.4 0 0 1 11.5 27.1A0.4 0.4 0 0 1 11.9 27.5ZM15.9 27.5A0.4 0.4 0 0 1 15.5 27.9A0.4 0.4 0 0 1 15.1 27.5A0.4 0.4 0 0 1 15.5 27.1A0.4 0.4 0 0 1 15.9 27.5ZM16.9 27.5A0.4 0.4 0 0 1 16.5 27.9A0.4 0.4 0 0 1 16.1 27.5A0.4 0.4 0 0 1 16.5 27.1A0.4 0.4 0 0 1 16.9 27.5ZM17.9 27.5A0.4 0.4 0 0 1 17.5 27.9A0.4 0.4 0 0 1 17.1 27.5A0.4 0.4 0 0 1 17.5 27.1A0.4 0.4 0 0 1 17.9 27.5ZM18.9 27.5A0.4 0.4 0 0 1 18.5 27.9A0.4 0.4 0 0 1 18.1 27.5A0.4 0.4 0 0 1 18.5 27.1A0.4 0.4 0 0 1 18.9 27.5ZM19.9 27.5A0.4 0.4 0 0 1 19.5 27.9A0.4 0.4 0 0 1 19.1 27.5A0.4 0.4 0 0 1 19.5 27.1A0.4 0.4 0 0 1 19.9 27.5ZM27.9 27.5A0.4 0.4 0 0 1 27.5 27.9A0.4 0.4 0 0 1 27.1 27.5A0.4 0.4 0 0 1 27.5 27.1A0.4 0.4 0 0 1 27.9 27.5ZM8.9 28.5A0.4 0.4 0 0 1 8.5 28.9A0.4 0.4 0 0 1 8.1 28.5A0.4 0.4 0 0 1 8.5 28.1A0.4 0.4 0 0 1 8.9 28.5ZM10.9 28.5A0.4 0.4 0 0 1 10.5 28.9A0.4 0.4 0 0 1 10.1 28.5A0.4 0.4 0 0 1 10.5 28.1A0.4 0.4 0 0 1 10.9 28.5ZM12.9 28.5A0.4 0.4 0 0 1 12.5 28.9A0.4 0.4 0 0 1 12.1 28.5A0.4 0.4 0 0 1 12.5 28.1A0.4 0.4 0 0 1 12.9 28.5ZM16.9 28.5A0.4 0.4 0 0 1 16.5 28.9A0.4 0.4 0 0 1 16.1 28.5A0.4 0.4 0 0 1 16.5 28.1A0.4 0.4 0 0 1 16.9 28.5ZM17.9 28.5A0.4 0.4 0 0 1 17.5 28.9A0.4 0.4 0 0 1 17.1 28.5A0.4 0.4 0 0 1 17.5 28.1A0.4 0.4 0 0 1 17.9 28.5ZM20.9 28.5A0.4 0.4 0 0 1 20.5 28.9A0.4 0.4 0 0 1 20.1 28.5A0.4 0.4 0 0 1 20.5 28.1A0.4 0.4 0 0 1 20.9 28.5ZM22.9 28.5A0.4 0.4 0 0 1 22.5 28.9A0.4 0.4 0 0 1 22.1 28.5A0.4 0.4 0 0 1 22.5 28.1A0.4 0.4 0 0 1 22.9 28.5ZM24.9 28.5A0.4 0.4 0 0 1 24.5 28.9A0.4 0.4 0 0 1 24.1 28.5A0.4 0.4 0 0 1 24.5 28.1A0.4 0.4 0 0 1 24.9 28.5ZM27.9 28.5A0.4 0.4 0 0 1 27.5 28.9A0.4 0.4 0 0 1 27.1 28.5A0.4 0.4 0 0 1 27.5 28.1A0.4 0.4 0 0 1 27.9 28.5ZM28.9 28.5A0.4 0.4 0 0 1 28.5 28.9A0.4 0.4 0 0 1 28.1 28.5A0.4 0.4 0 0 1 28.5 28.1A0.4 0.4 0 0 1 28.9 28.5ZM0 0L7 0L7 7L0 7ZM1 1L1 6L6 6L6 1ZM5 3.5A1.5 1.5 0 0 1 3.5 5A1.5 1.5 0 0 1 2 3.5A1.5 1.5 0 0 1 3.5 2A1.5 1.5 0 0 1 5 3.5ZM22 0L29 0L29 7L22 7ZM23 1L23 6L28 6L28 1ZM27 3.5A1.5 1.5 0 0 1 25.5 5A1.5 1.5 0 0 1 24 3.5A1.5 1.5 0 0 1 25.5 2A1.5 1.5 0 0 1 27 3.5ZM0 22L7 22L7 29L0 29ZM1 23L1 28L6 28L6 23ZM5 25.5A1.5 1.5 0 0 1 3.5 27A1.5 1.5 0 0 1 2 25.5A1.5 1.5 0 0 1 3.5 24A1.5 1.5 0 0 1 5 25.5Z" fill="url(#g1)"/></g></g></svg>
